<?xml version="1.0" encoding="utf-8"?>
<!-- Generator: Adobe Illustrator 26.5.1, SVG Export Plug-In . SVG Version: 6.00 Build 0)  -->
<svg version="1.1" id="Layer_1" xmlns="http://www.w3.org/2000/svg" xmlns:xlink="http://www.w3.org/1999/xlink" x="0px" y="0px"
	 viewBox="0 0 235.1 78.8" style="enable-background:new 0 0 235.1 78.8;" xml:space="preserve">
<style type="text/css">
	.st0{fill:none;stroke:#000000;stroke-width:0.3;}
	.st1{fill:#56263B;}
	.st2{fill:#F4F7E8;}
	.st3{fill:#DBD1D4;}
	.st4{fill:#D8CDD1;}
	.st5{fill:#FFFFFF;}
	.st6{fill:#BAA6AF;}
	.st7{fill:#C5B5BC;}
	.st8{fill:#F1EDEE;}
	.st9{fill:#DBD1D5;}
	.st10{fill:#DDD4D7;}
	.st11{fill:#755260;}
	.st12{fill:#E4E0E1;}
	.st13{fill:#FDFDFD;}
	.st14{fill:#5A2C3F;}
	.st15{fill:#B9A5AE;}
	.st16{fill:#ECE7E8;}
	.st17{fill:#DAD0D5;}
	.st18{fill:#E1D9DC;}
	.st19{fill:#EBE6E8;}
	.st20{fill:#D6CAD0;}
	.st21{fill:#131313;}
	.st22{fill:#FCFBFC;}
	.st23{fill:#CFC1C7;}
	.st24{fill:#D0C2C7;}
	.st25{fill:#DDD4D9;}
	.st26{fill:#F7F4F5;}
	.st27{fill:#D7CBCF;}
	.st28{fill:#FAF9FA;}
	.st29{fill:#C1AFB7;}
	.st30{fill:#C5C5C5;}
	.st31{fill:#E6F0F5;}
	.st32{fill:#F8FCF9;}
	.st33{fill:#E5E8D8;}
	.st34{fill:#F2D779;}
	.st35{fill:#DADDD9;}
	.st36{fill:#B45D9D;}
	.st37{fill:#582A3D;}
	.st38{fill:#5F3446;}
	.st39{fill:#F3F0D9;}
	.st40{fill:#331B0E;}
</style>
<g>
	<line class="st0" x1="-37.1" y1="-123" x2="-37.1" y2="-87"/>
	<line class="st0" x1="-91.1" y1="-69" x2="-55.1" y2="-69"/>
	<line class="st0" x1="-91.1" y1="110" x2="-55.1" y2="110"/>
	<line class="st0" x1="-37.1" y1="164" x2="-37.1" y2="128"/>
	<line class="st0" x1="864.9" y1="-123" x2="864.9" y2="-87"/>
	<line class="st0" x1="918.9" y1="-69" x2="882.9" y2="-69"/>
	<line class="st0" x1="918.9" y1="110" x2="882.9" y2="110"/>
	<line class="st0" x1="864.9" y1="164" x2="864.9" y2="128"/>
</g>
<g>
	<g>
		<path class="st1" d="M170,58.9c-55.3,0-110.6,0-165.9,0.1C0.7,59,0,58.3,0,54.9C0.2,37.6,0.2,20.3,0,3.1C0,0.6,0.6,0,3.1,0
			c111.3,0.1,222.5,0.1,333.8,0c2.5,0,3.1,0.6,3.1,3.1c-0.1,17.5-0.2,34.9,0,52.4c0,3-0.6,3.6-3.6,3.6
			C280.9,58.9,225.5,58.9,170,58.9z"/>
		<path class="st2" d="M31,34.9c-4.5,0-9-0.1-13.4,0.1c-3.6,0.2-4.7-1.3-4.5-4.7c0.2-4,0.2-8,0-11.9c-0.1-2.5,0.6-3.5,3.3-3.4
			c7.8,0.2,15.6,0.2,23.4,0c2.7-0.1,3.5,0.8,3.3,3.4c-0.5,5.2,1,10.5-0.8,15.7c-2.1,1-4.5-0.1-6.6,0.8C34.1,35.4,32.5,34.3,31,34.9z
			"/>
		<path class="st3" d="M105,17.9c-0.5,2.8-4.3,0.4-4.9,3c0.5,1.3,3.1-0.5,2.9,1.9c-3.2,0.7-5.7,0.1-5.8-3.8
			c-0.1-2.4,1.3-3.9,3.9-4.1c2.5-0.2,2.8,1.9,4,3.1L105,17.9z"/>
		<path class="st4" d="M57.9,22.1c-2.3-2.2-1.7-4.3,0.1-6.3c1.1-1.3,2.8-1,4.1-0.4c1.1,0.4,1.8,1.6,1.7,2.8c-0.1,1.9-1.8,1.5-3,1.6
			c-0.9,0.1-1.6,0.2-1.8,1.3C59.3,21.9,59.1,22.5,57.9,22.1z"/>
		<path class="st5" d="M117.9,22.1c-1.4-1.6-2.8-2.8-0.5-5.2c1.3-1.3,2.1-2.3,3.8-1.7c1.8,0.6,2.5,1.9,1.7,3.8
			c-0.8,1.6-3.7-0.8-3.8,2l0,0C119.3,21.9,119,22.5,117.9,22.1z"/>
		<path class="st5" d="M66,22.8c-1-3.6-1.3-7.1,0.3-10.7C67.1,15.7,67.4,19.3,66,22.8z"/>
		<path class="st5" d="M70.1,12.2c2.6-0.5,5.1-0.4,7.1,1.8c-0.1,0.7-0.5,1.1-1.1,1.4c-0.8,0.2-1.6,0.2-2.4,0.4
			c-3.1,2.5,0.6,4.7,0.3,7c-1.3,0-2.6,0-3.9,0C69.2,19.3,69.2,15.8,70.1,12.2z"/>
		<path class="st6" d="M67.2,44.9c-0.6,1.2,0.6,3-2.2,4.2c0.9-3.7-2.2-7.3,2-10c0.4,0.4,0.7,0.8,1,1.3
			C68.7,42.1,68.4,43.6,67.2,44.9z"/>
		<path class="st7" d="M62,40c0.7,1.5,1.3,2.9,2.1,4.7c-2.7,0.2-5.6-2.7-7.9,0.9c0.7-1.5,1.3-3,2-4.5c0.2-0.3,0.6-0.5,0.9-0.4
			c0.7,0,1.3-0.4,1.9-0.8C61.4,39.6,61.7,39.6,62,40z"/>
		<path class="st4" d="M76.1,15c0.4-0.3,0.8-0.7,1.2-1c2.3,3.1,1.9,5.7-1.1,8c-0.8-0.2-1.4-0.6-1.6-1.4C74.1,18.5,74.3,16.5,76.1,15
			z"/>
		<path class="st8" d="M125.8,23.7c-1.2-3-0.6-5.2-0.7-7.4c0-1.1,0.7-1.3,1.6-1.1c0.7,0.1,1.5,0.6,1.1,1.2
			C126.3,18.3,127.8,21,125.8,23.7z"/>
		<path class="st9" d="M110,19c0.1,1.1,0.1,2.2-0.9,3c-0.7,0-1.4,0-2,0.1c-1.6-1-0.3-3.3-2-4.2c0,0,0.1,0.1,0.1,0.1
			c0-1.1-0.7-2.5,0.8-2.9c1.5-0.4,1,1.3,1.5,2c0.5,0.6,1,1.2,1.5,1.8C109.3,18.5,109.6,18.5,110,19z"/>
		<path class="st10" d="M74.9,20.9c0.4,0.4,0.8,0.7,1.2,1.1c-0.5,0.6-1.2,1.1-2.1,0.8c-4.3-1.6-3.3-5.1-2.9-8.2
			c0.2-1.7,1.6-1.8,3-0.8C73.9,16.2,73.5,18.7,74.9,20.9z"/>
		<path class="st5" d="M95.9,18.9c-0.4,1.3,0.8,3.7-1.1,3.8c-2.3,0.1-1.1-2.3-1.2-3.5c-0.1-1.3-0.9-3.6,0.9-3.7
			C97,15.3,95.4,17.7,95.9,18.9z"/>
		<path class="st11" d="M75.2,39.9c0.3,0,0.7,0,1,0c2.7,0.3,2.4,2.2,2.1,4c-1.5,1.8-3,2-4.6,0C73.4,42.3,73.4,40.8,75.2,39.9z"/>
		<path class="st5" d="M86.2,20c-1-2.5-2-5-3.5-8.9c3,2.5,4.5,4.3,4.4,7C87.8,19.2,87.7,19.9,86.2,20z"/>
		<path class="st12" d="M33.7,34.1c2.8,0,5.7-0.1,8.5-0.1c-1,1.7-2.6,0.6-3.9,1c-0.6,0.2-2.3-0.8-1.5,1.2c0.5,1.2,0,2.1-1.1,2
			c-0.6-0.1-1.1-1.3-1.7-2C33.5,35.5,33.4,34.9,33.7,34.1z"/>
		<path class="st13" d="M86.2,20c0.3-0.6,0.6-1.3,0.8-1.9c0.6,0.3,1.3,0.6,1.9,0.9c0.5-0.4,0.9-0.3,1.3,0.1
			c-0.4,1.5,0.2,3.7-2.2,3.8C86.4,22.9,86.2,21.4,86.2,20z"/>
		<path class="st14" d="M67.2,44.9c0-1.6-0.1-3.3-0.1-4.9c1.4-1.3,2.3-0.2,3.2,0.7c0.4,1.6,0.5,3.1-1.1,4.1
			C68.6,44.9,67.9,44.9,67.2,44.9z"/>
		<path class="st10" d="M70.1,12.2c0,3.5,0,7.1,0,10.6C68.5,19.3,68.5,15.8,70.1,12.2z"/>
		<path class="st15" d="M62,40c-0.3,0-0.6,0-0.9,0c-0.5,0.6-0.8,1.6-2,1c-0.3,0-0.6,0-0.9,0c0.1-1.6,0.3-3.5,2-3.8
			C61.6,36.9,62.1,38.6,62,40z"/>
		<path class="st16" d="M112,18.1c2.9-0.4,4.1,0.3,2.2,3.2c-0.8,0.1-1.4,0.7-2.2,0.9c-1.1-0.8-0.9-2-0.9-3.2
			C111.2,18.5,111.6,18.2,112,18.1z"/>
		<path class="st17" d="M75.2,39.9c-0.7,1.2-1.3,2.5-1.1,3.9c0.5,0.8,0.6,1.5,0,2.3c0,0.8,0,1.5,0,2.3c-0.4,0-0.7,0-1.1,0.1
			c0-2.8-0.2-5.5,0.1-8.3C73.3,38.3,74.4,39.7,75.2,39.9z"/>
		<path class="st5" d="M112,18.1c-0.3,0.3-0.6,0.6-0.9,0.9c-0.4,0-0.7,0-1.1,0c-0.3,0-0.7,0-1,0c0.2-1.2-0.4-3.2,1-3.5
			C111.4,15.1,111.3,17.2,112,18.1z"/>
		<path class="st3" d="M117.9,22.1c0.4-0.4,0.8-0.8,1.2-1.1c1.2,0.7,2.8-0.5,4.2,1.2C121.3,23.3,119.7,23.8,117.9,22.1z"/>
		<path class="st18" d="M90.1,15c-0.1-1.6,0.5-3.8,2.1-2.7c1.7,1.1-0.4,3.2-1.1,4.7C90.2,16.6,90.6,15.6,90.1,15z"/>
		<path class="st19" d="M57.9,22.1c0.4-0.4,0.8-0.8,1.2-1.1c1.1,1,2.9-0.5,4.2,1.3C61.2,23.3,59.6,23.6,57.9,22.1z"/>
		<path class="st20" d="M77.9,43.9c0.1-1.6,0.5-3.3-1.7-4c2.5-0.9,2.9-0.2,2.6,4C78.5,44.3,78.2,44.3,77.9,43.9z"/>
		<path class="st21" d="M33.7,34.1c0.1,0.7,0.2,1.3,0.4,2c-1.5,0.7-2-1.1-3.1-1.2C31,31.1,32.9,34.5,33.7,34.1z"/>
		<path class="st22" d="M90.1,15c0.3,0.7,0.6,1.3,0.9,2c-0.1,0.7,0.1,1.6-0.8,2C89.8,19,89.4,19,89,19C88.9,17.5,89.3,16.2,90.1,15z
			"/>
		<path class="st23" d="M77.9,43.9c0.3,0,0.6,0,0.9,0c-0.6,2.7-2.9,1.8-4.7,2.2c0-0.8,0-1.5,0-2.3C75.3,45.2,76.6,45.3,77.9,43.9z"
			/>
		<path class="st24" d="M119.1,21c-0.4-3.8,2.4-1.4,3.8-2C122.2,20.7,119.5,18.6,119.1,21z"/>
		<path class="st25" d="M69.2,44.9c0.7-1.2,1.2-2.5,0.9-4c-0.4-0.8-0.1-1,0.7-0.8C70.4,41.7,72.6,44.2,69.2,44.9z"/>
		<path class="st26" d="M112,22.2c0.6-0.7,0.8-2.3,2.2-0.9C114,22.9,113.5,23.7,112,22.2z"/>
		<path class="st27" d="M103,22.8c-1-0.6-2-1.3-2.9-1.9C100.6,22.3,103.9,19.2,103,22.8z"/>
		<path class="st28" d="M107,22.1c0.6-2.4,1.3-1.2,2-0.1C108.4,23.5,107.8,23.4,107,22.1z"/>
		<path class="st29" d="M70.8,40.1c-0.2,0.3-0.5,0.6-0.7,0.8c-0.9-0.7-1.9-1-3-0.8c0-0.3,0-0.6,0-1C68.4,38.9,69.9,38.3,70.8,40.1z"
			/>
		<path class="st30" d="M36.2,29.4c0-1.8-1-4.2,2.3-4.2c1.8,0,3.1,1.5,2.3,2.9c-0.9,1.6,1.7,5-2.7,5C34.3,33.1,37,30.5,36.2,29.4z"
			/>
		<path class="st31" d="M25.1,20c3.1,0.6,4.9,2.6,4.4,5.6c-0.6,3.6-3.7,2.9-6.3,2.4c-0.3-0.2-0.4-0.5-0.4-0.8c0-0.3,0-0.5,0.1-0.5
			c0.3-0.4,0.6-0.7,0.9-1C27.3,24.5,23.8,21.7,25.1,20z"/>
		<path class="st32" d="M25.1,20c1.5,2.6,4.3,5.3-1,7c-2-2.3-1.8-4.6,0-7C24.4,20,24.8,20,25.1,20z"/>
		<path class="st33" d="M23.1,27c0,0.3,0,0.6,0,1c-3.3,1.6-2.6-2.3-4.2-3.1c-0.9-1.4-0.3-2.2,1-2.9c0.4,0,0.8,0,1.1-0.1
			c0.2,0.1,0.4,0.2,0.6,0.3c1,1,1.1,2.4,1.7,3.6C23.6,26.3,23.5,26.7,23.1,27z"/>
		<path class="st34" d="M20,22.1c-0.3,1-0.7,1.9-1,2.9c-1.5,0-3-0.6-2.6-2.2C16.9,20.7,18.5,21.2,20,22.1z"/>
		<path class="st35" d="M23.1,27c0-0.3,0-0.7,0-1c-1.1-1.1-0.7-3-2-4c0,0,0,0,0,0c0.6-1.3,1.6-1.9,3-2c0,2.3,0,4.6,0,7
			C23.8,27,23.4,27,23.1,27z"/>
		<path class="st36" d="M32.3,23.2c1.1,0.3,1.7,0.8,1.6,1.7c0,0.3-0.6,0.9-0.7,0.9c-0.7-0.3-1.3-0.8-1.9-1.2
			C31.7,24.1,32,23.6,32.3,23.2z"/>
		<path class="st37" d="M74.9,20.9c-1.4,0-3.4,0.6-3.1-1.8c0.2-2-1.5-5,2.4-5.3c0.7,0.4,1.3,0.8,2,1.2C76,17.1,76.6,19.2,74.9,20.9z
			"/>
		<path class="st38" d="M59.1,41c0.7-0.3,1.3-0.7,2-1c-0.4,0.9,1.2,2.4-0.6,2.8C58.9,43.2,59,42,59.1,41z"/>
		<path class="st39" d="M21.1,22c2.5,0.4,1.9,2.4,2,4C21.4,25.2,21,23.7,21.1,22z"/>
	</g>
</g>
<polygon class="st5" points="177.8,41.4 208.2,53.2 200.2,56.6 213,70.2 205.7,77.8 192.3,64.6 189,72.8 176.2,40.6 "/>
<g>
	<path class="st40" d="M175.8,40.2c0.3-0.3,0.8-0.4,1.2-0.3l33.2,12.5c0.5,0.2,0.8,0.6,0.7,1.1c0,0.5-0.4,0.9-0.8,1.1l-8.3,2.5
		l12.3,12.3c0.5,0.4,0.5,1.2,0,1.6l-7.5,7.5c-0.4,0.5-1.2,0.5-1.6,0L192.5,66l-2.3,8.5c-0.1,0.5-0.6,0.8-1.1,0.8s-1-0.3-1.1-0.7
		l-12.5-33.2C175.3,41,175.4,40.5,175.8,40.2z M188.9,70.4l1.9-6.9c0.1-0.4,0.4-0.7,0.8-0.8c0.4-0.1,0.8,0,1.1,0.3l13.1,13.1
		l5.9-5.9l-12.9-12.9c-0.3-0.3-0.4-0.7-0.3-1.1c0.1-0.4,0.4-0.7,0.8-0.8l6.9-2l-27.6-10.4L188.9,70.4z"/>
</g>
</svg>
