<?xml version="1.0" encoding="utf-8"?>
<!-- Generator: Adobe Illustrator 26.5.1, SVG Export Plug-In . SVG Version: 6.00 Build 0)  -->
<svg version="1.1" id="Layer_1" xmlns="http://www.w3.org/2000/svg" xmlns:xlink="http://www.w3.org/1999/xlink" x="0px" y="0px"
	 viewBox="0 0 484.9 104.5" style="enable-background:new 0 0 484.9 104.5;" xml:space="preserve">
<style type="text/css">
	.st0{fill:#EA580C;}
</style>
<g>
	<path d="M126.2,57.7c-2.9,0-5.5-0.7-7.8-2c-2.3-1.4-4.1-3.3-5.4-5.9s-2-5.7-2-9.2s0.7-6.6,2.2-9.1c1.4-2.5,3.4-4.4,5.9-5.7
		s5.3-1.9,8.5-1.9c2,0,3.9,0.3,5.8,0.9c1.8,0.6,3.4,1.6,4.6,2.9V0h10v56.8h-10.1v-6.1l0.8,2.2c-1.6,1.3-3.5,2.5-5.5,3.4
		C131.2,57.2,128.9,57.7,126.2,57.7z M129.5,49.2c1.3,0,2.5-0.2,3.6-0.5c1.1-0.3,1.9-0.9,2.7-1.6c0.8-0.7,1.5-1.6,2.1-2.6v-7.7
		c-0.4-1-1-2-1.8-2.7s-1.8-1.3-2.9-1.7c-1.1-0.4-2.4-0.6-3.7-0.6c-1.5,0-2.9,0.4-4.1,1.1s-2.3,1.8-3.1,3.1c-0.8,1.3-1.2,2.8-1.2,4.5
		s0.4,3.2,1.2,4.5c0.8,1.3,1.8,2.4,3.1,3.2C126.6,48.8,128,49.2,129.5,49.2L129.5,49.2z"/>
	<path d="M158.1,14.2c0-1.5,0.6-2.7,1.8-3.7c1.2-1,2.4-1.4,3.8-1.4s2.6,0.5,3.7,1.4s1.7,2.2,1.7,3.7s-0.6,2.7-1.7,3.6
		c-1.1,0.9-2.4,1.4-3.7,1.4s-2.6-0.5-3.8-1.4C158.7,16.9,158.1,15.7,158.1,14.2z M158.3,25.3h10.1v31.5h-10.1V25.3z"/>
	<path d="M195,72.7c-2.8,0-5.2-0.3-7.2-1c-1.9-0.7-3.6-1.5-4.9-2.4s-2.5-1.9-3.6-2.7l5.9-6.9c1.1,1,2.4,2,3.9,2.9s3.4,1.4,5.8,1.4
		c1.6,0,3.1-0.3,4.4-0.8c1.4-0.5,2.5-1.4,3.3-2.4c0.8-1.1,1.3-2.4,1.3-4v-6.9l0.4,1.8c-0.8,1.6-2.2,3.1-4.2,4.3s-4.7,1.8-7.9,1.8
		c-2.8,0-5.5-0.7-7.9-2.2s-4.4-3.5-5.8-6s-2.2-5.4-2.2-8.6s0.8-6.2,2.3-8.8s3.5-4.6,6-6.1c2.4-1.5,5-2.2,7.8-2.2s5.1,0.4,7.1,1.2
		c2,0.8,3.5,1.8,4.5,2.9l-0.4,0.9l1.1-3.5h9.3v31.5c0,3.1-0.9,5.8-2.6,8.2c-1.7,2.4-4,4.2-6.9,5.6S198.5,72.7,195,72.7L195,72.7z
		 M186.5,40.6c0,1.7,0.4,3.2,1.1,4.5c0.8,1.3,1.8,2.4,3.1,3.2s2.8,1.2,4.4,1.2c1.4,0,2.6-0.2,3.7-0.5s2-0.9,2.9-1.6
		c0.8-0.7,1.6-1.6,2.1-2.6V37c-0.4-1.1-1.1-2-1.9-2.7s-1.9-1.3-3-1.7s-2.4-0.6-3.8-0.6c-1.6,0-3.1,0.4-4.4,1.1
		c-1.3,0.7-2.4,1.8-3.1,3.1C186.9,37.5,186.5,38.9,186.5,40.6L186.5,40.6z"/>
	<path d="M224.1,14.2c0-1.5,0.6-2.7,1.8-3.7s2.4-1.4,3.8-1.4s2.6,0.5,3.7,1.4s1.7,2.2,1.7,3.7s-0.6,2.7-1.7,3.6
		c-1.1,0.9-2.4,1.4-3.7,1.4s-2.6-0.5-3.8-1.4C224.7,16.9,224.1,15.7,224.1,14.2z M224.4,25.3h10.1v31.5h-10.1V25.3z"/>
	<path d="M247.7,11.5h10.1v13.7h7.6V33h-7.6v23.8h-10.1V33h-4.9v-7.9h4.9V11.5z"/>
	<path d="M286.4,57.7c-2.9,0-5.6-0.6-8-1.8s-4.3-3-5.6-5.4c-1.4-2.5-2.1-5.6-2.1-9.4c0-3.5,0.7-6.6,2.2-9.2c1.4-2.6,3.3-4.6,5.7-6
		s4.9-2.1,7.5-2.1c3.1,0,5.5,0.5,7.1,1.5s2.9,2.2,4,3.4l-0.4,1.2l0.9-4.6h9.4v31.5H297V50l0.8,2.2c-0.1,0-0.4,0.3-0.9,0.8
		s-1.2,1.2-2.1,1.9c-0.9,0.8-2.1,1.4-3.5,1.9S288.3,57.7,286.4,57.7L286.4,57.7z M289.3,49.5c1.2,0,2.3-0.2,3.2-0.5s1.8-0.9,2.5-1.6
		c0.7-0.7,1.3-1.6,1.9-2.6V37c-0.4-1.1-1-2-1.7-2.7c-0.8-0.7-1.7-1.3-2.7-1.7S290.3,32,289,32c-1.4,0-2.8,0.4-4,1.1
		c-1.2,0.7-2.2,1.8-2.9,3.1c-0.7,1.3-1.1,2.8-1.1,4.5s0.4,3.2,1.1,4.5c0.8,1.3,1.8,2.4,3.1,3.2C286.4,49.1,287.8,49.5,289.3,49.5
		L289.3,49.5z"/>
	<path d="M317.4,0h10.1v56.8h-10.1V0z"/>
	<path d="M348,57.5c-2.6,0-5-0.5-7.2-1.4s-4.1-2.2-5.6-3.8l4.2-5.5c1.5,1.4,3,2.4,4.3,3s2.5,0.9,3.6,0.9c0.8,0,1.5-0.1,2.2-0.2
		c0.6-0.2,1.2-0.4,1.5-0.8c0.4-0.4,0.6-0.8,0.6-1.4c0-0.8-0.3-1.5-1-1.9s-1.5-0.9-2.5-1.2s-2.1-0.6-3.2-1c-2.9-0.9-5-2.2-6.2-4
		c-1.3-1.8-1.9-3.7-1.9-5.7c0-1.6,0.4-3.2,1.3-4.8s2.2-3,4-4s4.2-1.6,7.2-1.6c2.6,0,4.9,0.3,6.7,0.8s3.5,1.4,5.2,2.6l-3.8,5.9
		c-0.9-0.7-1.9-1.3-3.1-1.8c-1.1-0.5-2.2-0.8-3.1-0.8s-1.6,0-2.2,0.3c-0.6,0.2-1.1,0.5-1.4,0.9s-0.5,0.8-0.5,1.2
		c0,0.9,0.3,1.6,1,2.2c0.7,0.5,1.7,0.9,2.8,1.2c1.1,0.3,2.3,0.6,3.4,1c1.5,0.5,2.9,1.1,4,1.9c1.1,0.8,2,1.8,2.6,2.9s0.9,2.5,0.9,4.1
		c0,1.9-0.5,3.7-1.5,5.4s-2.5,3.1-4.5,4.1C353.6,56.9,351.1,57.5,348,57.5L348,57.5z"/>
	<path d="M369.8,14.2c0-1.5,0.6-2.7,1.8-3.7s2.4-1.4,3.8-1.4s2.6,0.5,3.7,1.4s1.7,2.2,1.7,3.7s-0.6,2.7-1.7,3.6s-2.4,1.4-3.7,1.4
		s-2.6-0.5-3.8-1.4S369.8,15.7,369.8,14.2z M370,25.3h10.1v31.5H370V25.3z"/>
	<path d="M406.7,72.7c-2.8,0-5.2-0.3-7.2-1c-1.9-0.7-3.6-1.5-4.9-2.4s-2.5-1.9-3.6-2.7l5.9-6.9c1.1,1,2.4,2,3.9,2.9s3.4,1.4,5.8,1.4
		c1.6,0,3.1-0.3,4.4-0.8s2.5-1.4,3.3-2.4c0.8-1.1,1.3-2.4,1.3-4v-6.9l0.4,1.8c-0.8,1.6-2.2,3.1-4.2,4.3s-4.7,1.8-7.9,1.8
		c-2.8,0-5.5-0.7-7.9-2.2s-4.4-3.5-5.8-6S388,44.2,388,41s0.8-6.2,2.3-8.8s3.5-4.6,6-6.1s5-2.2,7.8-2.2s5.1,0.4,7.1,1.2
		s3.5,1.8,4.5,2.9l-0.4,0.9l1.1-3.5h9.3v31.5c0,3.1-0.9,5.8-2.6,8.2c-1.7,2.4-4,4.2-6.9,5.6C413.3,72,410.2,72.7,406.7,72.7
		L406.7,72.7z M398.2,40.6c0,1.7,0.4,3.2,1.1,4.5c0.8,1.3,1.8,2.4,3.1,3.2c1.3,0.8,2.8,1.2,4.4,1.2c1.4,0,2.6-0.2,3.7-0.5
		s2-0.9,2.9-1.6c0.8-0.7,1.5-1.6,2.1-2.6V37c-0.4-1.1-1.1-2-1.9-2.7c-0.9-0.7-1.9-1.3-3-1.7s-2.4-0.6-3.8-0.6
		c-1.6,0-3.1,0.4-4.4,1.1s-2.4,1.8-3.1,3.1C398.5,37.5,398.2,38.9,398.2,40.6L398.2,40.6z"/>
	<path d="M445.2,25.3l0.8,5.6l-0.1-0.5c1.1-2,2.7-3.6,4.7-4.8s4.5-1.8,7.4-1.8s5.5,0.9,7.5,2.6c2,1.8,3,4,3.1,6.8v23.5h-10.1V37
		c0-1.4-0.4-2.5-1.1-3.3s-1.9-1.3-3.5-1.3c-1.5,0-2.9,0.5-4,1.5s-2,2.4-2.7,4.1c-0.6,1.7-0.9,3.7-0.9,6v12.8h-10.1V25.3H445.2
		L445.2,25.3z"/>
	<path d="M476.3,47.9c1.1-1,2.3-1.5,3.6-1.5c1.2,0,2.3,0.5,3.4,1.5s1.6,2.3,1.6,3.7c0,1.6-0.5,2.8-1.6,3.8s-2.2,1.4-3.4,1.4
		c-1.3,0-2.5-0.5-3.6-1.4s-1.6-2.2-1.6-3.8C474.7,50.1,475.2,48.9,476.3,47.9z"/>
</g>
<g>
	<path class="st0" d="M76.7,10.2c0-0.2-0.2-0.3-0.2-0.6c-0.2-0.3-0.2-0.5-0.2-0.8c-0.2-0.3-0.2-0.5-0.3-0.8l0,0c-0.2,0-0.2,0-0.2,0
		c-0.2,0.3-0.3,0.5-0.5,0.6c0,0.3-0.2,0.5-0.3,0.8c0,0-0.2,0.2-0.2,0.3c-0.5,0.2-0.9,0.6-1.1,1.2c-0.6-0.2-1.2-0.2-1.8-0.2
		c-0.9,0-1.7,0-2.5,0c-1.1,0.2-1.8,0.2-2.8,0.3c0,0-0.2,0-0.2,0.2s0,0.2,0.2,0.2c0.9,0.2,1.7,0.3,2.5,0.5c0.8,0.2,1.5,0.3,2.5,0.5
		c0.8,0.2,1.5,0.5,2.1,0.6c0.3,0.6,0.9,0.9,1.5,0.9c0.9,0,1.7-0.9,1.7-2C77.3,11.1,77,10.5,76.7,10.2z"/>
	<path d="M83.4,7.9C82.3,7.8,81.7,7.3,81,7c-1.5-0.8-3.2-1.7-7.4-1.7c-5.2,0-10.9,3.5-13.2,9l-0.2,0.2c-0.2,0.2-0.2,0.3-0.2,0.5
		c-0.2,0.3-0.2,0.5-0.3,0.6c-0.2,0.3-0.2,0.6-0.3,0.8c-0.2,0.2-0.2,0.5-0.2,0.6c-0.2,0.3-0.2,0.6-0.2,0.9c0,0.2-0.2,0.3-0.2,0.5
		c-0.2,0.5-0.2,1.1-0.2,1.5c0,8.4-2,12.1-8.4,15.9c-0.9,0.6-1.8,1.1-2.8,1.5c-6.6,3.8-14.1,8.1-17,12c-0.8,0.9-1.2,1.8-1.8,2.9
		c-2.1,3.4-4,6.3-8.4,7.5c-7,2-9.7,3.1-9.8,4.9c-0.2,1.2,1.2,1.8,2.6,2.5c-0.3,0.2-0.5,0.2-0.8,0.2c-1.4,0.3-2.8,0.5-4,1.1
		c-1.2,0.6-2.3,1.8-2.3,2.9c0,0.5,0.2,0.9,0.5,1.1c-2.6,0.9-5.4,2.1-6.3,3.5c-0.6,1.1-0.3,1.8,0,2c0.2,0.2,0.2,0.2,0.3,0.3l0.2,0.2
		c0,0.2,0,0.2,0.2,0.2s0.2,0.2,0.2,0.2c0.2,0,0.2,0.2,0.3,0.2s0.2,0,0.2,0.2c0.2,0,0.2,0.2,0.3,0.2S2,79,2,79.2c0.2,0,0.3,0,0.3,0.2
		c0.2,0,0.2,0,0.2,0c0.2,0,0.3,0,0.6,0.2c0.2,0,0.2,0,0.3,0c0.2,0,0.3,0,0.3,0s0,0,0.2,0c0.3,0,0.5,0,0.6,0c0,0,0,0,0.2,0
		c0.3,0,0.5,0,0.8-0.2h0.2c0.2,0,0.5-0.2,0.6-0.2s0.2,0,0.2,0c0.2,0,0.3-0.2,0.5-0.2c0.2,0,0.2,0,0.3,0c0.2,0,0.3-0.2,0.5-0.2
		c0.2,0,0.2,0,0.2-0.2c0.2,0,0.3-0.2,0.3-0.2c0.2,0,0.2,0,0.2-0.2c-0.5,0-0.3,0-0.3,0H8c0.2,0,0.3-0.2,0.3-0.2
		c2.5-0.9,5.1-1.4,6.9-1.4l0,0c0.2,0,0.3,0.2,0.5,0.2s0.2,0.2,0.2,0.2c0.5,0.3,0.9,0.6,1.4,1.2c0.6,0.6,1.2,1.2,2.1,1.5
		c2,0.8,10.1,0.5,14.1,0.3c5.5-0.5,13.8-0.2,15.2,0.6c0,0.3,0,0.6,0,0.8l0,0l0,0c0.2,4.6,0.6,9.5,2.1,12c2.9,4.6,11.6,6.7,12.7,6.9
		h0.2c0.3,0.2,0.8,0.2,1.2,0.2c0.9,0,2-0.3,2.9-1.5c0.9-1.2,1.4-0.9,1.7-0.8c0.8,0.6,1.8,0.5,2.5-0.3c0.5-0.6,0.6-1.5-0.3-2.3l0-0.5
		c-1.2-1.1-3.8-3.8-8.6-3.5c-0.2,0-0.2,0-0.3,0c-3.1-2-4-1.8-5.7-1.4c-0.5,0.2-0.8,0.3-1.4,0.5c-0.3,0.2-0.5,0-0.6-0.2
		C54,89.7,54,85.3,54,83.3c0-1.7,0.3-3.2,0.8-4.8c1.7-1.1,3.4-1.8,5.1-2.6c1.2-0.6,2.6-1.2,4-2c4-2.5,13.8-9.5,17.2-22.4
		c2.1-8.7,0.6-15.5-0.9-19.9l0,0c0-0.2-0.2-0.3-0.2-0.3c-0.2-0.3-0.2-0.5-0.3-0.6c0.2-0.2,0.2-0.2,0.2-0.3c-0.2-0.3-0.2-0.6-0.3-0.8
		c0-0.2,0-0.2-0.2-0.2c-0.2-0.3-0.2-0.5-0.3-0.6c-0.3-0.6-0.5-1.2-0.6-1.5l0,0c-0.2-0.2-0.2-0.5-0.2-0.5s0-0.3,0.2-0.5
		c0.3-0.3,1.7-0.3,2.6-0.3c0.5,0,0.8,0,1.1,0.2c0.6,0,1.2,0,2,0h1.2h0.2c0.6,0,1.2,0,1.8,0c0.2,0,0.3,0,0.5,0c0.3,0,0.6,0,0.8,0
		c0.2,0,0.5,0,0.6-0.2c0.2,0,0.3,0,0.3,0c0.3,0,0.6-0.2,0.9-0.2c0.2,0,0.2,0,0.3,0s0.5-0.2,0.6-0.2s0.3-0.2,0.5-0.2
		c0.3-0.2,0.5-0.2,0.6-0.2c0.2-0.2,0.3-0.2,0.5-0.2c0.2,0,0.2-0.2,0.3-0.2c0.3-0.2,0.5-0.3,0.6-0.3s0.2-0.2,0.2-0.2
		c0.3-0.2,0.5-0.3,0.6-0.5l0,0l0,0c0.2-0.2,0.2-0.2,0.2-0.2c0.2-0.2,0.2-0.3,0.3-0.3c0.2-0.2,0.2-0.2,0.2-0.3
		c0.2-0.2,0.2-0.3,0.2-0.5c0.2-0.2,0.2-0.3,0.2-0.3l0.2-0.3c0.2-0.3,0.2-0.5,0.2-0.8C95.5,17.4,91.4,8.7,83.4,7.9z M56.3,92.8
		c0.6-0.2,1.2-0.3,1.5-0.5c0.8-0.3,1.2-0.5,2.1,0c-1.2,0.2-1.7,0.5-1.7,0.5c-0.5,0.2-0.8,0.6-0.6,1.1c0.2,0.5,0.6,0.8,1.1,0.6
		c0,0,1.2-0.5,4.4-0.6c3.8-0.3,6.1,1.8,7.2,2.9h0.2c-1.1-0.8-2.6-0.8-4,1.4c-0.6,0.8-1.2,0.8-2.3,0.6h-0.2c-1.1-0.2-9-2.1-11.5-6.1
		c-1.4-2-1.8-6.1-1.8-10.3c0.6,0,1.4,0,2,0c0,0.5-0.2,0.9-0.2,1.2c0,3.7,0.2,7.4,1.7,8.7C54.8,92.8,55.5,93,56.3,92.8z M79.1,34.4
		c1.1,4.1,1.8,9.8,0.2,16.7c-3.1,12.3-12.4,19-16.2,21.3c-1.2,0.8-2.5,1.4-3.8,1.8c-1.1,0.5-2,1.1-3.2,1.5c0.6-1.2,1.2-2.5,2-4
		c0.3-0.5,0.2-0.9-0.3-1.2c-0.5-0.3-0.9-0.2-1.2,0.3c-2.1,3.8-3.4,6.6-4,9.3c-0.8,0-1.5,0-2.1,0c0-2,0-4,0.2-5.7
		c0-1.1,0.2-2.1,0.2-2.9c0-0.5-0.5-0.9-0.9-0.9s-0.9,0.5-0.9,0.9c0,0.8,0,1.8-0.2,2.9c0,1.2-0.2,2.6-0.2,4
		c-3.8-1.1-13.2-0.8-15.3-0.6C27,78.4,21,78.4,19.8,77.8c-0.6-0.2-0.9-0.8-1.4-1.2c-0.3-0.5-0.8-0.8-1.2-1.1c0-1.1,0.8-1.4,2.3-2
		c0.6-0.2,1.1-0.5,1.7-0.6c2-0.9,4,0.3,4.6,1.2c1.5,2,9.5,1.4,15.2-0.6c6.6-2.1,17.6-10.1,20.5-20.2c2.8-9.5,3.4-11.3,4.6-14.4
		c0.9-2.3,4.8-2.3,7.4-2.3h0.6C77,37,78.4,35.9,79.1,34.4z M79.7,16.2c-1.2,0.5-2,1.2-2,2.1c-0.2,0.6-0.2,0.6-1.7,1.1
		c-0.3,0.2-0.6,0.3-0.9,0.3c-1.1,0.5-4.4,1.5-5.8,0.9c-0.9-0.5-3.7-2.8-7.2-6.3c2.1-4.6,6.9-7.5,11.5-7.5c3.7,0,5.1,0.8,6.6,1.5
		c0.9,0.5,1.7,0.9,3.1,1.1c0.2,0,0.2,0,0.3,0c0.9,2.1,1.5,4.8-0.5,7C82,16,81,15.9,79.7,16.2z M86,23.2c-0.9-0.2-2.6-0.2-4.3-0.2
		c1.1-0.6,2.3-1.8,2.6-3.2c0.2-0.6,0.2-1.2-0.2-1.8c2.5-2.8,2-6,1.4-8c1.2,0.5,2.3,1.1,3.4,1.8C88.6,16.5,88,20.2,86,23.2z"/>
</g>
<g>
	<path d="M113.4,104.5V85h1.7v2.4c0.5-0.9,1.1-1.7,1.9-2.2c0.8-0.5,1.7-0.8,2.7-0.8c1.8,0,3.3,0.6,4.4,1.9c1.1,1.3,1.7,3,1.7,5.1
		c0,2.1-0.5,3.8-1.6,5.1c-1.1,1.3-2.5,1.9-4.4,1.9c-1,0-2-0.3-2.8-0.8c-0.8-0.5-1.5-1.2-2-2.2v8.9H113.4z M123.9,91.6
		c0-1.7-0.4-3-1.1-4c-0.8-1-1.8-1.4-3.2-1.4c-1.4,0-2.5,0.5-3.3,1.4s-1.2,2.2-1.2,3.8c0,1.7,0.4,3,1.3,4s2,1.5,3.3,1.5
		c1.3,0,2.3-0.5,3.1-1.4S123.9,93.2,123.9,91.6z"/>
	<path d="M135.5,98.5c-0.9,0-1.8-0.2-2.7-0.5c-0.8-0.4-1.6-0.9-2.3-1.6c-0.7-0.6-1.2-1.4-1.5-2.2s-0.5-1.7-0.5-2.7
		c0-0.9,0.2-1.8,0.5-2.7s0.9-1.6,1.5-2.3c0.7-0.7,1.4-1.2,2.3-1.5s1.7-0.5,2.7-0.5c1,0,1.9,0.2,2.7,0.5s1.6,0.9,2.3,1.5
		s1.2,1.4,1.5,2.3s0.5,1.7,0.5,2.7s-0.2,1.8-0.5,2.7s-0.9,1.6-1.5,2.2c-0.7,0.7-1.5,1.2-2.3,1.6C137.4,98.4,136.5,98.5,135.5,98.5z
		 M135.6,96.9c1.4,0,2.6-0.5,3.6-1.5s1.5-2.3,1.5-3.8c0-1.5-0.5-2.8-1.5-3.8s-2.2-1.5-3.6-1.5c-1.4,0-2.6,0.5-3.6,1.5
		s-1.5,2.3-1.5,3.8c0,1.5,0.5,2.8,1.5,3.8S134.1,96.9,135.6,96.9z"/>
	<path d="M149.5,98.8L144.3,85h1.9l3.4,9.4l4.1-10l4.1,10l3.4-9.4h1.9l-5.2,13.8l-4.1-10.3L149.5,98.8z"/>
	<path d="M176.9,91.5h-10.3c0,1.7,0.5,3,1.3,4s1.9,1.4,3.2,1.4c1,0,1.8-0.3,2.5-0.8s1.3-1.3,1.8-2.3l1.7,0.9
		c-0.7,1.3-1.5,2.3-2.4,2.9c-1,0.6-2.1,0.9-3.5,0.9c-1.9,0-3.4-0.6-4.6-1.9c-1.2-1.3-1.8-2.9-1.8-5c0-2.1,0.6-3.8,1.8-5.2
		s2.7-2,4.6-2c1.8,0,3.2,0.6,4.3,1.8c1.1,1.2,1.6,2.8,1.6,4.8V91.5z M174.8,90c-0.1-1.2-0.5-2.1-1.2-2.8s-1.7-1-2.9-1
		c-1.1,0-2,0.3-2.7,1s-1.2,1.6-1.3,2.7H174.8z"/>
	<path d="M182.5,87.6c0.7-1.1,1.3-1.9,2-2.4s1.4-0.7,2.2-0.7c0.3,0,0.5,0,0.8,0.1s0.5,0.1,0.8,0.2l-0.6,1.7
		c-0.2-0.1-0.4-0.1-0.6-0.1s-0.4-0.1-0.6-0.1c-1.1,0-2,0.5-2.8,1.5s-1.1,2.3-1.1,3.8V98h-1.8V85h1.8V87.6z"/>
	<path d="M201.3,91.5H191c0,1.7,0.5,3,1.3,4s1.9,1.4,3.2,1.4c1,0,1.8-0.3,2.5-0.8s1.3-1.3,1.8-2.3l1.7,0.9c-0.7,1.3-1.5,2.3-2.4,2.9
		c-1,0.6-2.1,0.9-3.5,0.9c-1.9,0-3.4-0.6-4.6-1.9c-1.2-1.3-1.8-2.9-1.8-5c0-2.1,0.6-3.8,1.8-5.2s2.7-2,4.6-2c1.8,0,3.2,0.6,4.3,1.8
		c1.1,1.2,1.6,2.8,1.6,4.8V91.5z M199.2,90c-0.1-1.2-0.5-2.1-1.2-2.8s-1.7-1-2.9-1c-1.1,0-2,0.3-2.7,1s-1.2,1.6-1.3,2.7H199.2z"/>
	<path d="M214.7,98v-2.4c-0.4,1-1,1.7-1.8,2.2s-1.7,0.7-2.7,0.7c-1.9,0-3.4-0.6-4.5-1.9s-1.7-3-1.7-5.1c0-2.1,0.6-3.8,1.7-5.1
		s2.6-2,4.4-2c1.1,0,2.1,0.2,2.8,0.7c0.8,0.5,1.4,1.2,1.9,2.1V75.3h1.8V98H214.7z M206,91.6c0,1.7,0.4,3,1.1,3.9s1.8,1.4,3.2,1.4
		c1.4,0,2.4-0.5,3.2-1.5s1.2-2.4,1.2-4.1c0-1.6-0.4-2.8-1.2-3.8s-1.8-1.4-3.2-1.4s-2.4,0.5-3.2,1.5S206,89.9,206,91.6z"/>
	<path d="M231.7,98h-1.8V75.3h1.8v12.1c0.4-0.9,1.1-1.6,1.9-2.1c0.8-0.5,1.7-0.7,2.8-0.7c1.8,0,3.2,0.7,4.4,2s1.7,3,1.7,5.1
		c0,2.1-0.6,3.8-1.7,5.1s-2.6,1.9-4.5,1.9c-1,0-2-0.2-2.7-0.7s-1.4-1.2-1.8-2.2V98z M240.5,91.6c0-1.7-0.4-3-1.2-4s-1.9-1.5-3.2-1.5
		s-2.4,0.5-3.2,1.4s-1.2,2.2-1.2,3.8c0,1.7,0.4,3.1,1.2,4.1s1.9,1.5,3.2,1.5c1.4,0,2.5-0.5,3.2-1.4
		C240.1,94.6,240.5,93.3,240.5,91.6z"/>
	<path d="M244.4,85h1.9l3.7,10.2l3.4-10.2h1.9l-6.7,19.5h-1.9l2.3-6.6L244.4,85z"/>
	<path d="M289.3,99.5h-2.4l-2.6-3c-1,0.7-2.1,1.2-3.2,1.5c-1.1,0.3-2.3,0.5-3.6,0.5c-1.5,0-3-0.3-4.3-0.8c-1.4-0.6-2.6-1.3-3.6-2.4
		c-1.1-1.1-1.9-2.3-2.5-3.7s-0.9-2.8-0.9-4.3c0-1.5,0.3-3,0.9-4.3s1.4-2.6,2.5-3.6c1.1-1.1,2.3-1.9,3.7-2.4c1.4-0.6,2.9-0.8,4.4-0.8
		s3,0.3,4.4,0.8s2.6,1.4,3.7,2.4c1.1,1.1,1.9,2.3,2.5,3.6c0.6,1.4,0.9,2.8,0.9,4.3c0,1.6-0.3,3-0.9,4.3s-1.4,2.5-2.6,3.7L289.3,99.5
		z M278.1,89.2h2.4l4,4.6c0.9-0.9,1.5-1.9,1.9-3c0.4-1.1,0.6-2.3,0.6-3.5c0-1.3-0.2-2.5-0.7-3.7c-0.5-1.1-1.2-2.2-2-3.1
		c-0.9-0.9-1.9-1.6-3.1-2.1s-2.4-0.7-3.6-0.7c-1.3,0-2.4,0.2-3.6,0.7s-2.2,1.2-3.1,2.1c-0.9,0.9-1.6,1.9-2,3.1
		c-0.5,1.1-0.7,2.4-0.7,3.7s0.2,2.5,0.7,3.7s1.1,2.2,2,3.1c0.9,0.9,1.9,1.6,3.1,2.1c1.1,0.5,2.3,0.7,3.6,0.7c1,0,2-0.2,3-0.5
		c0.9-0.3,1.7-0.7,2.4-1.3L278.1,89.2z"/>
	<path d="M302.7,98v-2.4c-0.4,1-1,1.7-1.8,2.2c-0.8,0.5-1.7,0.8-2.7,0.8c-1.9,0-3.4-0.6-4.5-1.9c-1.1-1.3-1.7-3-1.7-5.1
		c0-2.1,0.6-3.8,1.7-5.1s2.6-2,4.4-2c1.1,0,2.1,0.2,2.9,0.7c0.8,0.5,1.4,1.2,1.9,2.1V85h1.8v13H302.7z M294,91.6
		c0,1.7,0.4,3,1.1,3.9c0.8,0.9,1.8,1.4,3.2,1.4c1.4,0,2.4-0.5,3.2-1.5c0.8-1,1.2-2.4,1.2-4.1c0-1.6-0.4-2.8-1.2-3.8
		s-1.9-1.4-3.2-1.4s-2.4,0.5-3.2,1.5S294,89.9,294,91.6z"/>
	<path d="M307.9,95.7l1.7-1c0.3,0.7,0.7,1.3,1.2,1.6c0.5,0.4,1.2,0.5,2,0.5c0.8,0,1.4-0.2,1.8-0.6s0.7-0.9,0.7-1.5
		c0-1-0.9-1.8-2.7-2.5c-0.2-0.1-0.3-0.1-0.4-0.2c-1.4-0.5-2.3-1.1-2.9-1.7c-0.5-0.6-0.8-1.3-0.8-2.1c0-1.1,0.4-2,1.2-2.7
		s1.8-1.1,3-1.1c1.1,0,2,0.2,2.7,0.7s1.3,1.1,1.6,2l-1.7,0.9c-0.2-0.6-0.5-1.1-1-1.4s-1.1-0.5-1.8-0.5c-0.6,0-1.1,0.2-1.5,0.5
		c-0.4,0.4-0.6,0.8-0.6,1.4c0,0.5,0.2,1,0.6,1.3s1.2,0.7,2.5,1.2c1.4,0.5,2.4,1,2.9,1.6s0.7,1.4,0.7,2.4c0,1.2-0.4,2.1-1.3,2.9
		s-2,1.1-3.4,1.1c-1.1,0-2.1-0.3-2.8-0.8C308.8,97.3,308.2,96.6,307.9,95.7z"/>
	<path d="M321.2,86.5h-2.4V85h2.4v-5.3h1.8V85h2.6v1.5H323V98h-1.8V86.5z"/>
	<path d="M337.9,98v-2.4c-0.4,1-1,1.7-1.8,2.2c-0.8,0.5-1.7,0.8-2.7,0.8c-1.9,0-3.4-0.6-4.5-1.9c-1.1-1.3-1.7-3-1.7-5.1
		c0-2.1,0.6-3.8,1.7-5.1s2.6-2,4.4-2c1.1,0,2.1,0.2,2.9,0.7c0.8,0.5,1.4,1.2,1.9,2.1V85h1.8v13H337.9z M329.1,91.6
		c0,1.7,0.4,3,1.1,3.9c0.8,0.9,1.8,1.4,3.2,1.4c1.4,0,2.4-0.5,3.2-1.5c0.8-1,1.2-2.4,1.2-4.1c0-1.6-0.4-2.8-1.2-3.8
		s-1.9-1.4-3.2-1.4s-2.4,0.5-3.2,1.5S329.1,89.9,329.1,91.6z"/>
	<path d="M344.5,98V85h1.7v2c0.5-0.8,1.2-1.5,1.9-1.9s1.6-0.6,2.6-0.6c1.5,0,2.6,0.4,3.4,1.2s1.2,2,1.2,3.4V98h-1.8v-8
		c0-1.3-0.3-2.3-0.8-2.9c-0.5-0.6-1.4-0.9-2.5-0.9c-1.4,0-2.4,0.4-3,1.2s-1,2.1-1,3.8V98H344.5z"/>
</g>
</svg>
