<?xml version="1.0" encoding="UTF-8"?>
<svg id="Layer_1" data-name="Layer 1" xmlns="http://www.w3.org/2000/svg" viewBox="0 0 451.61 72.65">
  <defs>
    <style>
      .cls-1 {
        fill: #3b82f6;
      }

      .cls-2 {
        fill: #eab308;
      }

      .cls-3 {
        fill: #ea580c;
      }
    </style>
  </defs>
  <g>
    <path d="M92.91,57.67c-2.93,0-5.54-.68-7.85-2.05-2.3-1.37-4.12-3.35-5.44-5.94-1.32-2.59-1.98-5.66-1.98-9.22s.72-6.58,2.16-9.07c1.44-2.5,3.41-4.39,5.9-5.69,2.5-1.3,5.33-1.94,8.5-1.94,2.02,0,3.95,.31,5.8,.94,1.85,.62,3.4,1.58,4.64,2.88V0h10.01V56.81h-10.08v-6.12l.79,2.16c-1.63,1.34-3.46,2.48-5.47,3.42-2.02,.94-4.34,1.4-6.98,1.4Zm3.31-8.5c1.34,0,2.53-.18,3.56-.54,1.03-.36,1.94-.89,2.74-1.58,.79-.7,1.48-1.57,2.05-2.63v-7.7c-.38-1.05-.97-1.96-1.76-2.7-.79-.74-1.75-1.32-2.88-1.73-1.13-.41-2.36-.61-3.71-.61-1.49,0-2.87,.37-4.14,1.12-1.27,.75-2.29,1.76-3.06,3.06-.77,1.3-1.15,2.79-1.15,4.46s.38,3.19,1.15,4.54c.77,1.34,1.79,2.4,3.06,3.17,1.27,.77,2.65,1.15,4.14,1.15Z"/>
    <path d="M124.81,14.18c0-1.49,.59-2.71,1.76-3.67,1.18-.96,2.44-1.44,3.78-1.44s2.58,.48,3.71,1.44c1.13,.96,1.69,2.18,1.69,3.67s-.56,2.7-1.69,3.64c-1.13,.94-2.36,1.4-3.71,1.4s-2.6-.47-3.78-1.4c-1.18-.94-1.76-2.15-1.76-3.64Zm.22,11.16h10.08v31.46h-10.08V25.34Z"/>
    <path d="M161.74,72.65c-2.83,0-5.22-.34-7.16-1.01-1.94-.67-3.59-1.49-4.93-2.45-1.34-.96-2.54-1.87-3.6-2.74l5.9-6.91c1.1,1.01,2.39,1.98,3.85,2.92,1.46,.94,3.4,1.4,5.8,1.4,1.58,0,3.06-.28,4.43-.83,1.37-.55,2.47-1.36,3.31-2.41,.84-1.06,1.26-2.38,1.26-3.96v-6.91l.36,1.8c-.77,1.63-2.16,3.06-4.18,4.28-2.02,1.22-4.66,1.84-7.92,1.84-2.83,0-5.46-.73-7.88-2.2-2.42-1.46-4.36-3.46-5.8-5.98-1.44-2.52-2.16-5.39-2.16-8.6s.77-6.25,2.3-8.82c1.54-2.57,3.53-4.6,5.98-6.08,2.45-1.49,5.04-2.23,7.78-2.23s5.1,.4,7.09,1.19c1.99,.79,3.49,1.76,4.5,2.92l-.36,.94,1.08-3.46h9.29v31.46c0,3.07-.86,5.8-2.59,8.17-1.73,2.38-4.02,4.25-6.88,5.62-2.86,1.37-6.01,2.05-9.47,2.05Zm-8.57-32.04c0,1.68,.38,3.19,1.15,4.54,.77,1.34,1.81,2.4,3.13,3.17,1.32,.77,2.8,1.15,4.43,1.15,1.39,0,2.63-.18,3.71-.54s2.04-.89,2.88-1.58c.84-.7,1.55-1.57,2.12-2.63v-7.7c-.43-1.06-1.08-1.96-1.94-2.7-.86-.74-1.86-1.32-2.99-1.73-1.13-.41-2.39-.61-3.78-.61-1.63,0-3.11,.37-4.43,1.12-1.32,.74-2.36,1.76-3.13,3.06-.77,1.3-1.15,2.79-1.15,4.46Z"/>
    <path d="M190.83,14.18c0-1.49,.59-2.71,1.76-3.67,1.17-.96,2.44-1.44,3.78-1.44s2.58,.48,3.71,1.44c1.13,.96,1.69,2.18,1.69,3.67s-.56,2.7-1.69,3.64c-1.13,.94-2.36,1.4-3.71,1.4s-2.6-.47-3.78-1.4c-1.18-.94-1.76-2.15-1.76-3.64Zm.22,11.16h10.08v31.46h-10.08V25.34Z"/>
    <path d="M214.45,11.52h10.08v13.68h7.63v7.85h-7.63v23.76h-10.08v-23.76h-4.9v-7.85h4.9V11.52Z"/>
    <path d="M253.11,57.67c-2.93,0-5.58-.59-7.96-1.76-2.38-1.17-4.26-2.99-5.65-5.44-1.39-2.45-2.09-5.57-2.09-9.36,0-3.55,.72-6.62,2.16-9.22,1.44-2.59,3.33-4.6,5.69-6.01,2.35-1.42,4.85-2.12,7.49-2.12,3.12,0,5.48,.52,7.09,1.55,1.61,1.03,2.94,2.17,4,3.42l-.43,1.22,.94-4.61h9.36v31.46h-10.08v-6.84l.79,2.16c-.1,0-.38,.28-.86,.83-.48,.55-1.19,1.2-2.12,1.94-.94,.75-2.09,1.39-3.46,1.94-1.37,.55-2.99,.83-4.86,.83Zm2.88-8.21c1.2,0,2.28-.18,3.24-.54,.96-.36,1.8-.89,2.52-1.58,.72-.7,1.34-1.57,1.87-2.63v-7.7c-.38-1.06-.96-1.96-1.73-2.7-.77-.74-1.68-1.32-2.74-1.73-1.06-.41-2.23-.61-3.53-.61-1.44,0-2.77,.37-4,1.12s-2.2,1.76-2.92,3.06-1.08,2.79-1.08,4.46,.38,3.19,1.15,4.54c.77,1.34,1.79,2.4,3.06,3.17,1.27,.77,2.65,1.15,4.14,1.15Z"/>
    <path d="M284.07,0h10.08V56.81h-10.08V0Z"/>
    <path d="M314.74,57.46c-2.59,0-5-.46-7.24-1.37-2.23-.91-4.12-2.18-5.65-3.82l4.18-5.54c1.54,1.39,2.96,2.39,4.28,2.99,1.32,.6,2.51,.9,3.56,.9,.82,0,1.55-.08,2.2-.25,.65-.17,1.16-.43,1.55-.79,.38-.36,.58-.83,.58-1.4,0-.82-.32-1.46-.97-1.94-.65-.48-1.48-.88-2.48-1.19-1.01-.31-2.09-.64-3.24-.97-2.88-.91-4.96-2.24-6.23-4-1.27-1.75-1.91-3.66-1.91-5.72,0-1.58,.42-3.18,1.26-4.79,.84-1.61,2.18-2.95,4.03-4.03,1.85-1.08,4.24-1.62,7.16-1.62,2.64,0,4.87,.26,6.7,.79s3.55,1.39,5.18,2.59l-3.82,5.9c-.91-.72-1.93-1.33-3.06-1.84-1.13-.5-2.17-.78-3.13-.83-.86-.05-1.6,.05-2.2,.29-.6,.24-1.07,.55-1.4,.94-.34,.38-.5,.79-.5,1.22-.05,.91,.3,1.63,1.04,2.16,.74,.53,1.69,.94,2.84,1.22,1.15,.29,2.28,.62,3.38,1.01,1.54,.48,2.85,1.13,3.96,1.94,1.1,.82,1.96,1.79,2.56,2.92,.6,1.13,.9,2.48,.9,4.07,0,1.92-.49,3.73-1.48,5.44-.98,1.7-2.47,3.08-4.46,4.14-1.99,1.05-4.52,1.58-7.6,1.58Z"/>
    <path d="M336.49,14.18c0-1.49,.59-2.71,1.76-3.67,1.17-.96,2.44-1.44,3.78-1.44s2.58,.48,3.71,1.44c1.13,.96,1.69,2.18,1.69,3.67s-.56,2.7-1.69,3.64c-1.13,.94-2.36,1.4-3.71,1.4s-2.6-.47-3.78-1.4c-1.18-.94-1.76-2.15-1.76-3.64Zm.22,11.16h10.08v31.46h-10.08V25.34Z"/>
    <path d="M373.42,72.65c-2.83,0-5.22-.34-7.16-1.01-1.94-.67-3.59-1.49-4.93-2.45-1.34-.96-2.54-1.87-3.6-2.74l5.9-6.91c1.1,1.01,2.39,1.98,3.85,2.92,1.46,.94,3.4,1.4,5.8,1.4,1.58,0,3.06-.28,4.43-.83s2.47-1.36,3.31-2.41c.84-1.06,1.26-2.38,1.26-3.96v-6.91l.36,1.8c-.77,1.63-2.16,3.06-4.18,4.28-2.02,1.22-4.66,1.84-7.92,1.84-2.83,0-5.46-.73-7.88-2.2-2.42-1.46-4.36-3.46-5.8-5.98-1.44-2.52-2.16-5.39-2.16-8.6s.77-6.25,2.3-8.82c1.54-2.57,3.53-4.6,5.98-6.08,2.45-1.49,5.04-2.23,7.78-2.23s5.1,.4,7.09,1.19c1.99,.79,3.49,1.76,4.5,2.92l-.36,.94,1.08-3.46h9.29v31.46c0,3.07-.86,5.8-2.59,8.17-1.73,2.38-4.02,4.25-6.88,5.62-2.86,1.37-6.01,2.05-9.47,2.05Zm-8.57-32.04c0,1.68,.38,3.19,1.15,4.54,.77,1.34,1.81,2.4,3.13,3.17,1.32,.77,2.8,1.15,4.43,1.15,1.39,0,2.63-.18,3.71-.54s2.04-.89,2.88-1.58c.84-.7,1.55-1.57,2.12-2.63v-7.7c-.43-1.06-1.08-1.96-1.94-2.7-.86-.74-1.86-1.32-2.99-1.73-1.13-.41-2.39-.61-3.78-.61-1.63,0-3.11,.37-4.43,1.12-1.32,.74-2.36,1.76-3.13,3.06-.77,1.3-1.15,2.79-1.15,4.46Z"/>
    <path d="M411.87,25.34l.79,5.62-.14-.5c1.1-1.97,2.66-3.56,4.68-4.79,2.02-1.22,4.49-1.84,7.42-1.84s5.46,.88,7.45,2.63c1.99,1.75,3.01,4.02,3.06,6.8v23.54h-10.08v-19.8c-.05-1.39-.42-2.51-1.12-3.35-.7-.84-1.86-1.26-3.49-1.26-1.54,0-2.88,.5-4.03,1.51-1.15,1.01-2.04,2.38-2.66,4.1-.62,1.73-.94,3.72-.94,5.98v12.82h-10.08V25.34h9.14Z"/>
    <path d="M443.01,47.88c1.08-1.01,2.27-1.51,3.56-1.51,1.2,0,2.34,.5,3.42,1.51s1.62,2.26,1.62,3.74c0,1.58-.54,2.84-1.62,3.78-1.08,.94-2.22,1.4-3.42,1.4-1.3,0-2.48-.47-3.56-1.4-1.08-.94-1.62-2.2-1.62-3.78,0-1.49,.54-2.74,1.62-3.74Z"/>
  </g>
  <g>
    <path d="M9.3,11.85c-2.45,.24-4.64,1.33-6.29,2.97C1.15,16.68,0,19.24,0,22.08v28.44C0,56.19,4.6,60.79,10.28,60.79h13.21v-20.54h17.11V11.85H9.3Zm22.29,13.94c-2.72,0-4.93-2.2-4.93-4.92s2.21-4.93,4.93-4.93c1.06,0,2.05,.34,2.85,.92,.11,.08,.22,.16,.33,.25,.11,.08,.2,.17,.3,.27,.9,.89,1.45,2.12,1.45,3.49,0,2.72-2.21,4.92-4.93,4.92Z"/>
    <path class="cls-1" d="M23.48,40.25v20.54H10.27c-5.67,0-10.27-4.6-10.27-10.27,0-2.84,1.15-5.4,3.01-7.26,1.86-1.85,4.43-3.01,7.26-3.01h13.21Z"/>
    <path class="cls-2" d="M60.65,30.33c0,.98-.1,1.93-.29,2.85t0,.01c-.78,3.82-3.09,7.08-6.27,9.11-1.72-1.28-3.85-2.05-6.17-2.05h-1.47V16.13c7.84,0,14.2,6.36,14.2,14.2Z"/>
    <path class="cls-3" d="M60.36,33.18s.01,0,0,.01c-.78,3.82-3.09,7.08-6.27,9.11-1.72-1.28-3.85-2.05-6.17-2.05h-1.47V21.84c6.86,0,12.59,4.87,13.91,11.34Z"/>
  </g>
</svg>